<?xml version="1.0" standalone="no"?>
<!DOCTYPE svg PUBLIC "-//W3C//DTD SVG 20010904//EN"
 "http://www.w3.org/TR/2001/REC-SVG-20010904/DTD/svg10.dtd">
<svg version="1.0" xmlns="http://www.w3.org/2000/svg"
 width="171.000000pt" height="171.000000pt" viewBox="0 0 171.000000 171.000000"
 preserveAspectRatio="xMidYMid meet">
<metadata>
Created by potrace 1.14, written by Peter Selinger 2001-2017
</metadata>
<g transform="translate(0.000000,171.000000) scale(0.100000,-0.100000)"
fill="#000000" stroke="none">
<path d="M320 1378 c-11 -12 -20 -35 -20 -51 0 -39 54 -93 104 -102 37 -7 37
-8 32 -49 -3 -22 -6 -67 -7 -98 -1 -32 -3 -58 -5 -58 -1 0 -28 37 -60 82 -68
98 -136 168 -163 168 -38 0 -88 -72 -166 -243 l-35 -79 32 8 c18 5 51 8 73 9
33 0 45 6 74 38 19 21 46 44 61 52 25 13 32 11 101 -29 l74 -42 -1 -64 c0 -36
-4 -119 -9 -185 -4 -66 -8 -140 -9 -165 0 -62 30 -117 79 -144 22 -11 42 -22
44 -23 2 -1 -1 -15 -6 -30 -10 -30 -7 -63 6 -63 5 0 28 18 53 39 l45 40 159
-3 c87 -1 192 0 233 4 73 5 75 5 114 -28 60 -50 74 -56 82 -32 3 10 1 28 -4
39 -15 26 -14 41 2 41 22 0 89 62 103 95 14 34 11 119 -12 396 l-6 77 69 41
c38 23 80 41 93 41 14 0 41 -18 70 -47 39 -39 53 -47 77 -45 16 2 48 -3 71
-11 l41 -14 -20 49 c-60 154 -141 278 -180 278 -27 0 -106 -81 -167 -172 -29
-43 -54 -78 -55 -78 -1 0 -3 26 -5 58 -1 31 -4 76 -6 99 -3 41 -3 41 39 52 23
6 54 22 68 37 52 52 27 134 -40 134 -34 0 -91 -56 -99 -96 l-6 -34 -381 2
-380 3 -11 30 c-31 86 -101 121 -146 73z"/>
</g>
</svg>
