<svg xmlns="http://www.w3.org/2000/svg">
    <symbol id="logo">
    </symbol>
    <symbol width="12.307" height="10" viewBox="0 0 12.307 10" id="photo">
        <path
            d="M84.262,930.382a2.5,2.5,0,1,0,2.5-2.5,2.5,2.5,0,0,0-2.5,2.5Zm7.885-4.232H89.453c-.192-.768-.383-1.539-1.153-1.539H85.222c-.768,0-.96.771-1.152,1.539H81.377a.771.771,0,0,0-.769.77v6.923a.77.77,0,0,0,.769.768h10.77a.769.769,0,0,0,.768-.768V926.92a.77.77,0,0,0-.768-.77Zm-5.386,7.644a3.413,3.413,0,1,1,3.414-3.412,3.412,3.412,0,0,1-3.414,3.412Zm5.386-5.334h-1.54v-.769h1.54Z"
            transform="translate(-80.608 -924.611)" fill="#8898df" fill-rule="evenodd" />
    </symbol>
    <symbol width="15.076" height="16.244" viewBox="0 0 15.076 16.244" id="chat">
        <g transform="translate(-92.309 -953.928)">
            <path
                d="M101.73,953.928c3.014,0,5.457,2.14,5.457,4.78a4.346,4.346,0,0,1-.855,2.571l1.014,1.614a.259.259,0,0,1-.356.357l-1.594-1a5.888,5.888,0,0,1-3.666,1.239c-3.014,0-5.458-2.14-5.458-4.78S98.716,953.928,101.73,953.928Z"
                fill="#f0e27d" />
            <g>
                <path
                    d="M97.253,958.708a5.08,5.08,0,0,1,4.967-4.76c-.162-.013-.325-.02-.49-.02-3.014,0-5.458,2.14-5.458,4.78s2.444,4.78,5.458,4.78c.165,0,.329-.006.491-.019A5.081,5.081,0,0,1,97.253,958.708Z"
                    fill="#e3bc69" />
            </g>
            <g>
                <g>
                    <path id="Контур_109" data-name="Контур 109"
                        d="M99.148,958.585a.245.245,0,0,1-.245-.245v-.467a.245.245,0,0,1,.49,0v.467A.244.244,0,0,1,99.148,958.585Z"
                        fill="#4f5662" />
                </g>
                <g>
                    <path
                        d="M104.311,958.585a.245.245,0,0,1-.245-.245v-.467a.245.245,0,0,1,.49,0v.467A.244.244,0,0,1,104.311,958.585Z"
                        fill="#4f5662" />
                </g>
                <g>
                    <path
                        d="M101.73,958.835a1.09,1.09,0,0,1-.822-.366.245.245,0,1,1,.369-.323.616.616,0,0,0,.9,0,.245.245,0,1,1,.369.323A1.088,1.088,0,0,1,101.73,958.835Z"
                        fill="#4f5662" />
                </g>
            </g>
            <path
                d="M97.965,960.612c-3.014,0-5.458,2.14-5.458,4.78a4.335,4.335,0,0,0,.856,2.57l-1.014,1.615a.258.258,0,0,0,.356.356l1.593-1a5.892,5.892,0,0,0,3.667,1.24c3.014,0,5.457-2.141,5.457-4.78S100.979,960.612,97.965,960.612Z"
                fill="#e68f9d" />
            <g>
                <path
                    d="M98.727,965.123a1.028,1.028,0,0,0-.459,1.024c0,.155-.082.336-.483.336-.336,0-.451-.123-.451-.549a1.5,1.5,0,0,1,.549-1.245c.27-.23.729-.484.729-.926,0-.377-.328-.557-.737-.557-.836,0-.655.631-1.1.631a.47.47,0,0,1-.491-.467c0-.442.508-1.1,1.613-1.1,1.049,0,1.745.582,1.745,1.352A2.1,2.1,0,0,1,98.727,965.123Zm-.3,2.724a.637.637,0,0,1-.631.63.631.631,0,0,1,0-1.261A.637.637,0,0,1,98.424,967.847Z"
                    fill="#ebebeb" />
            </g>
        </g>
    </symbol>
    <symbol width="11.164" height="10.579" viewBox="0 0 11.164 10.579" id="upload-img">
        <path
            d="M110.748,929.03v3.427a1.932,1.932,0,0,1-1.7,2.141,1.84,1.84,0,0,1-.445,0h-6.854a1.932,1.932,0,0,1-2.142-2.141v-5.712a1.932,1.932,0,0,1,2.142-2.142h4.569a.428.428,0,0,1,0,.857h-4.569c-.9,0-1.285.384-1.285,1.285v5.283l1.45-1.451a.577.577,0,0,1,.811,0l.537.537a.286.286,0,0,0,.4,0l2.822-2.821a.575.575,0,0,1,.811,0l2.593,2.593V929.03a.429.429,0,1,1,.857,0Zm-7.858-1.857a.716.716,0,1,0,.718.714.717.717,0,0,0-.718-.714Zm6.018-1.553.126-.125v1.25a.429.429,0,0,0,.857,0v-1.25l.125.125a.429.429,0,0,0,.606-.606l-.857-.856a.428.428,0,0,0-.6,0l-.857.856a.428.428,0,0,0,.6.606Z"
            transform="translate(-99.597 -924.033)" fill="#8898df" />
    </symbol>
    <symbol width="12" height="12" viewBox="0 0 12 12" id="voice">
        <path
            d="M243.4,923.611a6,6,0,1,0,6,6A6,6,0,0,0,243.4,923.611Zm-1.382,3.349a1.383,1.383,0,0,1,2.765,0v2.766a1.383,1.383,0,1,1-2.765,0Zm1.642,5.219v1.141a.26.26,0,1,1-.52,0v-1.141a2.989,2.989,0,0,1-2.764-3.005.258.258,0,0,1,.258-.26h0a.26.26,0,0,1,.261.257,2.505,2.505,0,1,0,5.01,0,.258.258,0,0,1,.26-.257h0a.258.258,0,0,1,.257.26A2.989,2.989,0,0,1,243.66,932.179Z"
            transform="translate(-237.4 -923.611)" fill="#8898df" />
    </symbol>
    <symbol width="12" height="12" viewBox="0 0 12 12" id="send">
        <g transform="translate(-223.387 -923.611)">
            <g>
                <g>
                    <path d="M229.387,923.611a6,6,0,1,0,6,6A6,6,0,0,0,229.387,923.611Z" fill="#8898df" />
                </g>
                <path
                    d="M226.052,929.065l5.9-2.109a.371.371,0,0,1,.493.493l-2.108,5.9a.371.371,0,0,1-.723,0l-.93-2.416a.369.369,0,0,0-.222-.222l-2.416-.923a.37.37,0,0,1,.007-.722Z"
                    fill="none" stroke="#fcfcfc" stroke-linecap="round" stroke-linejoin="round" stroke-width="0.697" />
            </g>
            <line y1="1.093" x2="1.093" transform="translate(228.62 929.687)" fill="none" stroke="#fcfcfc"
                stroke-linecap="round" stroke-linejoin="round" stroke-width="0.697" />
        </g>
    </symbol>
    <symbol width="14.977" height="15.431" viewBox="0 0 14.977 15.431" id="home-works">
        <g transform="translate(-126.775 -954.346)">
            <g>
                <g>
                    <path data-name="writing,-text,-sentences,-combining,-file,-document"
                        d="M127.683,958.884v9.531a.453.453,0,0,0,.453.454h9.077a.454.454,0,0,0,.454-.454V966.6a.454.454,0,0,1,.908,0v1.815a1.362,1.362,0,0,1-1.362,1.362h-9.077a1.361,1.361,0,0,1-1.361-1.362V958.43a.457.457,0,0,1,.133-.321l3.631-3.63a.453.453,0,0,1,.321-.133h6.353a1.361,1.361,0,0,1,1.362,1.361v2.269a.454.454,0,0,1-.908,0v-2.269a.454.454,0,0,0-.454-.454h-5.9v2.27a1.361,1.361,0,0,1-1.361,1.361Zm.641-.907h1.628a.455.455,0,0,0,.454-.454V955.9Zm11.159,1.361a.454.454,0,1,1,0,.908H134.49a.454.454,0,1,1,0-.908Zm-2.723,2.5a.454.454,0,0,1,0,.908h-4.085a.454.454,0,1,1,0-.908Zm4.538,2.5a.454.454,0,1,1,0,.908h-5.9a.454.454,0,1,1,0-.908Z"
                        fill="#c7cede" />
                </g>
            </g>
        </g>
    </symbol>
    <symbol width="15.852" height="15.821" viewBox="0 0 15.852 15.821" id="ai">
        <g transform="translate(-158.918 -954.001)">
            <path
                d="M174.42,968.907l-.021-.005-.417-1.67a.465.465,0,0,0-.234-.3,10.45,10.45,0,0,0-5.17-1.177,8.337,8.337,0,0,1,4.614-.434.464.464,0,1,0,.183-.91,10.881,10.881,0,0,0-2.794-.131,5.143,5.143,0,0,0-3.737,1.708,5.145,5.145,0,0,0-3.737-1.708,10.871,10.871,0,0,0-2.794.131.464.464,0,1,0,.182.91,8.337,8.337,0,0,1,4.614.434,10.454,10.454,0,0,0-5.17,1.177.466.466,0,0,0-.233.3l-.418,1.67-.02.005a.464.464,0,1,0,.229.9l5.184-1.317a2.449,2.449,0,0,0,4.326,0l5.184,1.317a.452.452,0,0,0,.114.015.465.465,0,0,0,.115-.915Zm-5.572-1.416a.464.464,0,0,0-.557.311,1.518,1.518,0,0,1-2.894,0,.465.465,0,0,0-.558-.311l-4.528,1.151.244-.976c.8-.383,4.077-1.8,6.022-.436a.465.465,0,0,0,.533,0c1.942-1.359,5.22.054,6.023.436l.244.976Z"
                fill="#c7cede" />
            <path
                d="M172.169,956.044h.4v.4a.465.465,0,0,0,.929,0v-.4h.4a.464.464,0,1,0,0-.928h-.4v-.4a.465.465,0,0,0-.929,0v.4h-.4a.464.464,0,1,0,0,.928Z"
                fill="#c7cede" />
            <path d="M172.114,960.972l-2.972,1.238a.465.465,0,0,0,.357.858l2.972-1.239a.464.464,0,1,0-.357-.857Z"
                fill="#c7cede" />
            <path
                d="M167.727,962.595a.441.441,0,0,0,.108.013.465.465,0,0,0,.451-.357l1.239-5.2a.465.465,0,1,0-.9-.215l-1.238,5.2A.463.463,0,0,0,167.727,962.595Z"
                fill="#c7cede" />
            <path
                d="M165.393,962.209a.464.464,0,0,0,.459.4.518.518,0,0,0,.067,0,.464.464,0,0,0,.394-.525l-.5-3.468a.464.464,0,1,0-.919.132Z"
                fill="#c7cede" />
            <path
                d="M160.571,959.338a.465.465,0,0,0,0,.657l2.972,2.972a.465.465,0,1,0,.657-.657l-2.972-2.972a.465.465,0,0,0-.657,0Z"
                fill="#c7cede" />
            <path
                d="M160.4,956.911a1.455,1.455,0,1,0-1.455-1.455A1.457,1.457,0,0,0,160.4,956.911Zm0-1.981a.526.526,0,1,1-.526.526A.527.527,0,0,1,160.4,954.93Z"
                fill="#c7cede" />
            <circle cx="0.464" cy="0.464" r="0.464" transform="translate(159.197 961.927)" fill="#c7cede" />
            <circle cx="0.464" cy="0.464" r="0.464" transform="translate(170.59 958.211)" fill="#c7cede" />
            <circle cx="0.464" cy="0.464" r="0.464" transform="translate(166.379 955.487)" fill="#c7cede" />
        </g>
    </symbol>
    <symbol width="13.962" height="15.407" viewBox="0 0 13.962 15.407" id="daries">
        <g transform="translate(-196.22 -954.288)">
            <path
                d="M209.7,958.862v-3.13a1.446,1.446,0,0,0-1.444-1.444H198.145a1.928,1.928,0,0,0-1.925,1.926v11.555a1.928,1.928,0,0,0,1.925,1.926h11.074a.481.481,0,0,0,.481-.482v-6.981a.482.482,0,0,0,.482-.481v-2.408A.481.481,0,0,0,209.7,958.862Zm-1.444,2.407a.722.722,0,1,1,0-1.444h.963v1.444Zm-11.073-5.055a.964.964,0,0,1,.962-.963v10.592a1.914,1.914,0,0,0-.962.257Zm.962,12.518a.964.964,0,0,1-.68-1.644.953.953,0,0,1,.68-.282c10.938,0,10.257.036,10.593-.083v.564H198.145a.482.482,0,0,0,0,.963h10.593v.482Zm10.593-3.371a.482.482,0,0,1-.482.482h-9.148V955.251h9.148a.482.482,0,0,1,.482.481v3.13h-.482a1.685,1.685,0,0,0,0,3.37h.482Z"
                fill="#c7cede" />
            <path
                d="M202.539,959.987a6.973,6.973,0,0,0,1.173.752.479.479,0,0,0,.421,0,6.993,6.993,0,0,0,1.174-.752c2.845-2.272.224-4.713-1.384-3.413-1.607-1.3-4.228,1.142-1.384,3.413Zm.959-2.445a.482.482,0,0,0,.85,0c.577-1.085,2.741.425-.424,2.219C200.757,957.967,202.921,956.457,203.5,957.542Z"
                fill="#c7cede" />
            <path d="M206.09,963.676h-4.334a.481.481,0,0,0,0,.963h4.334a.481.481,0,0,0,0-.963Z" fill="#c7cede" />
        </g>
    </symbol>
    <symbol width="15.168" height="15.168" viewBox="0 0 15.168 15.168" id="setting">
        <g transform="translate(-227.318 -954.325)">
            <g id="Сгруппировать_44" data-name="Сгруппировать 44">
                <g>
                    <path id="Контур_63" data-name="Контур 63"
                        d="M242.114,960.582l-1.665-.273a5.728,5.728,0,0,0-.494-1.19l.965-1.351a.444.444,0,0,0-.048-.572l-1.257-1.257a.442.442,0,0,0-.572-.047l-1.351.964a5.8,5.8,0,0,0-1.189-.494l-.274-1.664a.444.444,0,0,0-.438-.373h-1.778a.444.444,0,0,0-.438.373l-.273,1.664a5.78,5.78,0,0,0-1.19.494l-1.351-.964a.442.442,0,0,0-.572.047l-1.257,1.257a.442.442,0,0,0-.047.572l.964,1.351a5.783,5.783,0,0,0-.494,1.19l-1.664.273a.445.445,0,0,0-.373.438V962.8a.444.444,0,0,0,.373.438l1.664.274a5.742,5.742,0,0,0,.494,1.189l-.964,1.351a.442.442,0,0,0,.047.572l1.257,1.257a.444.444,0,0,0,.572.048l1.351-.965a5.726,5.726,0,0,0,1.19.494l.273,1.665a.444.444,0,0,0,.438.372h1.778a.444.444,0,0,0,.438-.372l.274-1.665a5.741,5.741,0,0,0,1.189-.494l1.351.965a.444.444,0,0,0,.572-.048l1.257-1.257a.444.444,0,0,0,.048-.572l-.965-1.351a5.742,5.742,0,0,0,.494-1.189l1.665-.274a.444.444,0,0,0,.372-.438V961.02A.445.445,0,0,0,242.114,960.582Zm-.517,1.839-1.577.258a.446.446,0,0,0-.361.338,4.861,4.861,0,0,1-.61,1.471.445.445,0,0,0,.015.493l.914,1.279-.725.725-1.279-.914a.445.445,0,0,0-.493-.015,4.862,4.862,0,0,1-1.471.61.446.446,0,0,0-.338.361l-.259,1.577h-1.022l-.259-1.577a.445.445,0,0,0-.338-.361,4.872,4.872,0,0,1-1.471-.61.445.445,0,0,0-.493.015l-1.279.914-.724-.725.913-1.279a.443.443,0,0,0,.016-.493,4.838,4.838,0,0,1-.611-1.471.445.445,0,0,0-.361-.338l-1.577-.258V961.4l1.578-.259a.443.443,0,0,0,.36-.338,4.848,4.848,0,0,1,.611-1.471.443.443,0,0,0-.016-.493l-.913-1.279.724-.724,1.279.913a.443.443,0,0,0,.493.016,4.85,4.85,0,0,1,1.471-.611.443.443,0,0,0,.338-.36l.259-1.578h1.022l.259,1.578a.445.445,0,0,0,.338.36,4.84,4.84,0,0,1,1.471.611.443.443,0,0,0,.493-.016l1.279-.913.725.724-.914,1.279a.443.443,0,0,0-.015.493,4.871,4.871,0,0,1,.61,1.471.445.445,0,0,0,.361.338l1.577.259Z"
                        fill="#c7cede" />
                </g>
            </g>
            <g>
                <g>
                    <path
                        d="M234.9,957.91a4,4,0,1,0,4,4A4,4,0,0,0,234.9,957.91Zm0,7.11a3.111,3.111,0,1,1,3.111-3.111A3.114,3.114,0,0,1,234.9,965.02Z"
                        fill="#c7cede" />
                </g>
            </g>
            <g>
                <g>
                    <path
                        d="M234.9,960.576a1.333,1.333,0,1,0,1.333,1.333A1.335,1.335,0,0,0,234.9,960.576Zm0,1.778a.444.444,0,1,1,.444-.445A.445.445,0,0,1,234.9,962.354Z"
                        fill="#c7cede" />
                </g>
            </g>
        </g>
    </symbol>
</svg>