<svg xmlns="http://www.w3.org/2000/svg" width="12.786" height="15.894" viewBox="0 0 12.786 15.894">
  <g id="Сгруппировать_35" data-name="Сгруппировать 35" transform="translate(-225.689 -753.463)">
    <path id="Контур_29" data-name="Контур 29" d="M235.135,766.8h-6.1a2.922,2.922,0,0,1-2.923-2.923v-4.85h11.951v4.85A2.922,2.922,0,0,1,235.135,766.8Z" fill="#6e7ca6"/>
    <path id="Контур_30" data-name="Контур 30" d="M236.342,768.089v.565a.7.7,0,0,1-.7.7h-2.575c-2.132-.837-2.62-3.959-1.115-5.111h1.971a4.259,4.259,0,0,1,2.422,3.843Z" fill="#e7eaf7"/>
    <path id="Контур_31" data-name="Контур 31" d="M233.064,769.357h-4.538a.7.7,0,0,1-.7-.7v-.565a4.259,4.259,0,0,1,2.422-3.843h1.7A4.067,4.067,0,0,0,233.064,769.357Z" fill="#d7dbf3"/>
    <ellipse id="Эллипс_3" data-name="Эллипс 3" cx="1.248" cy="1.146" rx="1.248" ry="1.146" transform="translate(235.979 758.661)" fill="#f0c9bc"/>
    <ellipse id="Эллипс_4" data-name="Эллипс 4" cx="1.248" cy="1.146" rx="1.248" ry="1.146" transform="translate(225.689 758.661)" fill="#f0c9bc"/>
    <path id="Контур_32" data-name="Контур 32" d="M237.249,759.81a4.511,4.511,0,0,1-1.293,3.14c-5.2,1.539-7.77-3.718-5.972-7.476a5.521,5.521,0,0,1,2.1-.408,4.969,4.969,0,0,1,5.166,4.744Z" fill="#f5dbcd"/>
    <path id="Контур_33" data-name="Контур 33" d="M235.956,762.95a5.36,5.36,0,0,1-3.873,1.6,4.97,4.97,0,0,1-5.167-4.745,4.746,4.746,0,0,1,3.068-4.336c-.757,3.456.946,8.02,5.972,7.476Z" fill="#f0c9bc"/>
    <path id="Контур_34" data-name="Контур 34" d="M238.143,759.028a4.112,4.112,0,0,1-.987-.12,3.281,3.281,0,0,0-2.311-2.409,12.923,12.923,0,0,1-4.88,2.1,3.711,3.711,0,0,1,.746-4.989,6.643,6.643,0,0,1,1.372-.143,5.829,5.829,0,0,1,6.06,5.565Z" fill="#7c86ab"/>
    <path id="Контур_35" data-name="Контур 35" d="M229.965,758.595a17.71,17.71,0,0,1-3.943.433,5.692,5.692,0,0,1,4.689-5.422A7.151,7.151,0,0,0,229.965,758.595Z" fill="#6e7ca6"/>
    <path id="Контур_36" data-name="Контур 36" d="M233.62,766.482c0,.61-.74,1.346-1.36,1.682a.356.356,0,0,1-.216.042c-.671-.718-1.042-1.882-.536-2.543a.721.721,0,0,0,1.278-.012.832.832,0,0,1,.834.831Z" fill="#e06e7e"/>
    <path id="Контур_37" data-name="Контур 37" d="M232.044,768.206a.356.356,0,0,1-.133-.042c-.621-.334-1.364-1.067-1.365-1.678a.832.832,0,0,1,.831-.833.806.806,0,0,1,.131.01A4.11,4.11,0,0,0,232.044,768.206Z" fill="#dc5c6e"/>
    <ellipse id="Эллипс_5" data-name="Эллипс 5" cx="0.925" cy="0.736" rx="0.925" ry="0.736" transform="translate(228.651 760.315)" fill="#e89fa9"/>
    <ellipse id="Эллипс_6" data-name="Эллипс 6" cx="0.925" cy="0.736" rx="0.925" ry="0.736" transform="translate(233.664 760.315)" fill="#e89fa9"/>
    <g id="Сгруппировать_32" data-name="Сгруппировать 32">
      <path id="Контур_38" data-name="Контур 38" d="M230.555,760.483a.233.233,0,0,1-.233-.233.207.207,0,0,0-.414,0,.233.233,0,0,1-.466,0,.673.673,0,0,1,1.346,0A.233.233,0,0,1,230.555,760.483Z" fill="#4e5660"/>
    </g>
    <g id="Сгруппировать_33" data-name="Сгруппировать 33">
      <path id="Контур_39" data-name="Контур 39" d="M234.49,760.483a.233.233,0,0,1-.233-.233.207.207,0,0,0-.414,0,.233.233,0,0,1-.466,0,.673.673,0,0,1,1.346,0A.233.233,0,0,1,234.49,760.483Z" fill="#4e5660"/>
    </g>
    <g id="Сгруппировать_34" data-name="Сгруппировать 34">
      <path id="Контур_40" data-name="Контур 40" d="M232.083,761.211a.852.852,0,0,1-.643-.293.233.233,0,1,1,.351-.306.386.386,0,0,0,.583,0,.233.233,0,1,1,.351.306.852.852,0,0,1-.642.293Z" fill="#4e5660"/>
    </g>
  </g>
</svg>
