<svg xmlns="http://www.w3.org/2000/svg" width="4.923" height="4.025" viewBox="0 0 4.923 4.025">
  <path
    d="M597.405,687.24a.272.272,0,0,1,.168.252v3.282a.272.272,0,0,1-.326.268.269.269,0,0,1-.14-.074l-1.014-1.014h-.707a.273.273,0,0,1-.274-.274v-1.094a.273.273,0,0,1,.274-.273h.707l1.014-1.014a.272.272,0,0,1,.3-.059Zm1.442-.04a.272.272,0,0,1,.387,0,2.733,2.733,0,0,1,0,3.867.274.274,0,0,1-.387-.387,2.187,2.187,0,0,0,0-3.094.273.273,0,0,1,0-.386Zm-.774.773a.262.262,0,0,1,.089-.059.27.27,0,0,1,.105-.021.274.274,0,0,1,.1.021.248.248,0,0,1,.088.059,1.641,1.641,0,0,1,0,2.321.274.274,0,0,1-.387-.387,1.092,1.092,0,0,0,0-1.547.294.294,0,0,1-.059-.089.27.27,0,0,1-.021-.1.265.265,0,0,1,.021-.1.271.271,0,0,1,.059-.089Z"
    transform="translate(-595.112 -687.119)" fill="#fff" />
</svg>