<?xml version="1.0" encoding="UTF-8"?>
<svg id="a" data-name="OBJECTS" xmlns="http://www.w3.org/2000/svg" viewBox="0 0 114.1 27.22">
  <g>
    <g>
      <path d="m13.41,24.41s-1.3,2.48-.63,2.81c.68.33,3.85-3.14,3.85-3.14l-3.22.33Z" style="fill: #6b64bf; stroke-width: 0px;"/>
      <path d="m29.39,24.41s1.3,2.48.63,2.81c-.68.33-3.85-3.14-3.85-3.14l3.22.33Z" style="fill: #6b64bf; stroke-width: 0px;"/>
      <path d="m32.09,9.86s3.86-6.53,5.68-6.57c1.82-.04,4.96,8.18,4.96,8.18,0,0-2.73-1.19-3.56-.45,0,0-2.32-3.14-3.47-2.48s-3.61,2.1-3.61,2.1v-.78Z" style="fill: #e89fbb; stroke-width: 0px;"/>
      <path d="m10.64,9.86S6.78,3.33,4.96,3.29c-1.82-.04-4.96,8.18-4.96,8.18,0,0,2.73-1.19,3.56-.45,0,0,2.32-3.14,3.47-2.48s3.61,2.1,3.61,2.1v-.78Z" style="fill: #e89fbb; stroke-width: 0px;"/>
      <path d="m29.34,24.93c-5.4.6-10.71.64-15.91.04-2.13-.25-3.68-2.15-3.54-4.29l1.14-17.4h20.73l1.14,17.36c.14,2.15-1.43,4.05-3.57,4.29Z" style="fill: #739ae8; stroke-width: 0px;"/>
      <path d="m32.85,19.74c-.31,1.72-1.7,3.1-3.51,3.31-5.4.6-10.71.64-15.91.04-1.8-.21-3.17-1.59-3.48-3.3l-.06.9c-.14,2.14,1.41,4.04,3.54,4.29,5.2.6,10.51.57,15.91-.04,2.14-.24,3.71-2.14,3.57-4.29l-.06-.9Z" style="fill: #807cd8; stroke-width: 0px;"/>
      <g>
        <path d="m34.5,3.55c-1.13,1.13-3.8,1.1-3.8,1.1,0,0,.06-2.57,1.19-3.71,1.13-1.13,2.2-1.12,2.92-.4.72.72.82,1.87-.31,3Z" style="fill: #739ae8; stroke-width: 0px;"/>
        <path d="m8.3,3.55c1.13,1.13,3.8,1.1,3.8,1.1,0,0-.06-2.57-1.19-3.71s-2.2-1.12-2.92-.4-.82,1.87.31,3Z" style="fill: #739ae8; stroke-width: 0px;"/>
      </g>
      <g>
        <path d="m13.36,9.86c0,.88-.35,1.6-.77,1.6s-.77-.72-.77-1.6.35-1.6.77-1.6.77.72.77,1.6Z" style="fill: #e89fbb; stroke-width: 0px;"/>
        <path d="m28.71,9.86c0,.88.35,1.6.77,1.6s.77-.72.77-1.6-.35-1.6-.77-1.6-.77.72-.77,1.6Z" style="fill: #e89fbb; stroke-width: 0px;"/>
      </g>
      <path d="m23.83,15.82c0,.24-1.09.44-2.43.44s-2.43-.2-2.43-.44,1.09-.44,2.43-.44,2.43.2,2.43.44Z" style="fill: #ecb32b; stroke-width: 0px;"/>
      <path d="m13.84,12.5s-.79,2-.43,2.33c.36.33,2.2-1.95,2.2-1.95l-1.77-.38Z" style="fill: #fff; stroke-width: 0px;"/>
      <path d="m27.2,12.88l1.77-.38s.79,2,.43,2.33" style="fill: #fff; stroke-width: 0px;"/>
      <path d="m21.4,13.45c-4.55,0-9.38-.7-9.38-1.99h.33c0,.78,3.72,1.65,9.05,1.65s9.05-.87,9.05-1.65h.33c0,1.29-4.83,1.99-9.38,1.99Z" style="fill: #413a89; stroke-width: 0px;"/>
    </g>
    <g>
      <path d="m21.71,9.77c.87,1.25,2.59,1.55,3.84.68,1.25-.87,1.55-2.59.68-3.84-.87-1.25-2.59-1.55-3.84-.68s-1.55,2.59-.68,3.84Z" style="fill: #f7f0e2; stroke-width: 0px;"/>
      <path d="m22.09,9.37c.62.88,1.83,1.1,2.72.48.88-.62,1.1-1.83.48-2.72-.62-.88-1.83-1.1-2.72-.48-.88.62-1.1,1.83-.48,2.72Z" style="fill: #2e353a; stroke-width: 0px;"/>
    </g>
    <g>
      <path d="m14.42,10.41c1.02,1.46,3.03,1.82,4.49.8,1.46-1.02,1.82-3.03.8-4.49-1.02-1.46-3.03-1.82-4.49-.8-1.46,1.02-1.82,3.03-.8,4.49Z" style="fill: #f7f0e2; stroke-width: 0px;"/>
      <path d="m14.87,9.95c.72,1.03,2.14,1.28,3.18.56,1.03-.72,1.28-2.14.56-3.18-.72-1.03-2.14-1.28-3.18-.56-1.03.72-1.28,2.14-.56,3.18Z" style="fill: #2e353a; stroke-width: 0px;"/>
    </g>
  </g>
  <text transform="translate(34.37 23.35)" style="font-family: HanWangYenHeavy, HanWangYenHeavy; font-size: 14.81px; letter-spacing: .1em;"><tspan x="0" y="0" style="fill: #e37c8c;">智能</tspan><tspan x="32.58" y="0" style="fill: #ecb32b;">宜</tspan><tspan x="48.86" y="0" style="fill: #9075f5;">助教</tspan></text>
</svg>