<svg aria-hidden="true" style="position: absolute; width: 0; height: 0; overflow: hidden;" version="1.1"
  xmlns="http://www.w3.org/2000/svg" xmlns:xlink="http://www.w3.org/1999/xlink">
  <defs>
    <symbol id="icon-logo" viewBox="0 0 133 32">
      <path fill="#6360a9" style="fill: var(--color1, #6360a9)"
        d="M15.19 25.733c0 0-1.089 2.045-0.531 2.337 0.558 0.266 3.187-2.602 3.187-2.602l-2.656 0.266z"></path>
      <path fill="#6360a9" style="fill: var(--color1, #6360a9)"
        d="M28.388 25.733c0 0 1.089 2.045 0.531 2.337-0.558 0.266-3.187-2.602-3.187-2.602l2.656 0.266z"></path>
      <path fill="#e09ab5" style="fill: var(--color2, #e09ab5)"
        d="M30.619 13.703c0 0 3.187-5.391 4.7-5.444 1.514-0.027 4.090 6.772 4.090 6.772s-2.257-0.983-2.948-0.372c0 0-1.912-2.602-2.868-2.045s-3.001 1.726-3.001 1.726v-0.637z">
      </path>
      <path fill="#e09ab5" style="fill: var(--color2, #e09ab5)"
        d="M12.906 13.703c0 0-3.187-5.391-4.7-5.444-1.514-0.027-4.090 6.772-4.090 6.772s2.257-0.983 2.948-0.372c0 0 1.912-2.602 2.868-2.045s3.001 1.726 3.001 1.726v-0.637z">
      </path>
      <path fill="#5f93ce" style="fill: var(--color3, #5f93ce)"
        d="M28.362 26.158c-4.461 0.505-8.843 0.531-13.145 0.027-1.753-0.212-3.054-1.779-2.921-3.532l0.956-14.367h17.129l0.956 14.34c0.080 1.753-1.222 3.32-2.974 3.532z">
      </path>
      <path fill="#7778b7" style="fill: var(--color4, #7778b7)"
        d="M31.256 21.856c-0.266 1.434-1.407 2.576-2.895 2.735-4.461 0.505-8.843 0.531-13.145 0.027-1.487-0.159-2.629-1.328-2.868-2.735l-0.053 0.744c-0.106 1.779 1.168 3.346 2.921 3.532 4.302 0.505 8.684 0.478 13.145-0.027 1.779-0.186 3.054-1.779 2.948-3.558l-0.053-0.717z">
      </path>
      <path fill="#5f93ce" style="fill: var(--color3, #5f93ce)"
        d="M32.611 8.498c-0.929 0.929-3.134 0.903-3.134 0.903s0.053-2.124 0.983-3.054 1.806-0.929 2.417-0.319c0.584 0.558 0.69 1.514-0.266 2.47z">
      </path>
      <path fill="#5f93ce" style="fill: var(--color3, #5f93ce)"
        d="M10.968 8.498c0.929 0.929 3.134 0.903 3.134 0.903s-0.053-2.124-0.983-3.054c-0.929-0.929-1.806-0.929-2.417-0.319-0.584 0.558-0.664 1.514 0.266 2.47z">
      </path>
      <path fill="#e09ab5" style="fill: var(--color2, #e09ab5)"
        d="M15.137 13.703c0 0.733-0.285 1.328-0.637 1.328s-0.637-0.594-0.637-1.328c0-0.733 0.285-1.328 0.637-1.328s0.637 0.594 0.637 1.328z">
      </path>
      <path fill="#e09ab5" style="fill: var(--color2, #e09ab5)"
        d="M29.105 13.703c0 0.733-0.285 1.328-0.637 1.328s-0.637-0.594-0.637-1.328c0-0.733 0.285-1.328 0.637-1.328s0.637 0.594 0.637 1.328z">
      </path>
      <path fill="#f5b01a" style="fill: var(--color5, #f5b01a)"
        d="M23.821 18.616c0 0.205-0.904 0.372-2.018 0.372s-2.018-0.166-2.018-0.372c0-0.205 0.904-0.372 2.018-0.372s2.018 0.166 2.018 0.372z">
      </path>
      <path fill="#fff" style="fill: var(--color6, #fff)"
        d="M15.535 15.88c0 0-0.637 1.646-0.345 1.912s1.806-1.62 1.806-1.62l-1.461-0.292z"></path>
      <path fill="#fff" style="fill: var(--color6, #fff)" d="M26.583 16.199l1.461-0.319c0 0 0.637 1.646 0.345 1.912z">
      </path>
      <path fill="#3d3781" style="fill: var(--color7, #3d3781)"
        d="M21.802 16.677c-3.771 0-7.754-0.584-7.754-1.646h0.266c0 0.637 3.080 1.354 7.489 1.354s7.489-0.717 7.489-1.354h0.266c0 1.062-4.010 1.646-7.754 1.646z">
      </path>
      <path fill="#f9f0e1" style="fill: var(--color8, #f9f0e1)"
        d="M25.799 11.006c0.723 1.034 0.47 2.458-0.563 3.18s-2.458 0.47-3.18-0.563c-0.723-1.034-0.47-2.458 0.563-3.18s2.458-0.47 3.18 0.563z">
      </path>
      <path fill="#273137" style="fill: var(--color9, #273137)"
        d="M25.016 11.444c0.513 0.733 0.334 1.743-0.4 2.256s-1.743 0.334-2.256-0.4c-0.513-0.733-0.334-1.743 0.4-2.256s1.743-0.334 2.256 0.4z">
      </path>
      <path fill="#f9f0e1" style="fill: var(--color8, #f9f0e1)"
        d="M20.384 11.089c0.84 1.202 0.547 2.858-0.655 3.698s-2.858 0.547-3.698-0.655c-0.84-1.202-0.547-2.858 0.655-3.698s2.858-0.547 3.698 0.655z">
      </path>
      <path fill="#273137" style="fill: var(--color9, #273137)"
        d="M19.474 11.62c0.597 0.853 0.388 2.029-0.465 2.626s-2.029 0.388-2.626-0.465c-0.597-0.853-0.388-2.029 0.465-2.626s2.029-0.388 2.626 0.465z">
      </path>
      <path fill="#ed7a89" style="fill: var(--color10, #ed7a89)"
        d="M37.417 16.651c1.275-0.69 2.656-0.823 4.116-0.372 0.956 0.319 1.726 0.983 2.257 1.939 0.319 0.637 0.505 1.275 0.558 1.939 0.106 1.036 0 1.965-0.266 2.788-0.133 0.372-0.266 0.69-0.425 0.929-0.133 0.212-0.133 0.398 0.053 0.558 0.398 0.345 0.69 0.637 0.797 0.85 0.106 0.239 0.053 0.451-0.106 0.664-0.266 0.345-0.584 0.425-0.956 0.266-0.212-0.106-0.505-0.345-0.876-0.717-0.212-0.212-0.398-0.266-0.611-0.186-0.505 0.239-1.089 0.345-1.7 0.372h-0.611c-0.664-0.027-1.301-0.186-1.939-0.478-0.717-0.372-1.301-0.903-1.7-1.646-0.372-0.69-0.584-1.487-0.637-2.39v-0.717c0.053-0.69 0.186-1.328 0.451-1.939 0.292-0.717 0.823-1.354 1.593-1.859zM40.153 17.341c-0.744-0.053-1.407 0.133-2.045 0.505-0.319 0.212-0.611 0.505-0.823 0.903-0.319 0.558-0.505 1.195-0.558 1.939-0.027 0.584 0.053 1.168 0.266 1.753 0.080 0.186 0.212 0.159 0.425-0.027 0.637-0.531 1.275-0.797 1.939-0.77 0.85 0.053 1.726 0.531 2.629 1.434 0.186 0.186 0.372 0.186 0.531-0.027 0.398-0.69 0.584-1.487 0.531-2.39-0.027-0.345-0.080-0.69-0.133-0.956-0.451-1.514-1.381-2.31-2.762-2.363zM40.923 23.874c-0.983-1.062-1.912-1.222-2.788-0.531-0.186 0.212-0.186 0.372 0 0.531 0.85 0.505 1.753 0.637 2.735 0.372 0.212-0.053 0.239-0.186 0.053-0.372z">
      </path>
      <path fill="#ed7a89" style="fill: var(--color10, #ed7a89)"
        d="M48.651 15.323c0.239-0.239 0.505-0.292 0.77-0.186 0.159 0.053 0.292 0.133 0.398 0.266 0.106 0.186 0.106 0.478 0.053 0.876-0.106 0.637-0.319 1.328-0.584 2.071-0.027 0.080-0.053 0.212-0.053 0.398v7.675c-0.133 0.531-0.425 0.77-0.903 0.69-0.345-0.053-0.531-0.266-0.584-0.664v-4.966c0-0.212-0.053-0.239-0.186-0.133-0.372 0.266-0.744 0.186-1.089-0.212-0.159-0.319-0.133-0.637 0.133-0.956 1.009-1.407 1.62-2.868 1.806-4.355 0.027-0.186 0.106-0.345 0.239-0.505zM50.164 16.358c0-0.425 0.239-0.69 0.717-0.77h5.656c0.372 0.053 0.637 0.266 0.797 0.69 0.133 0.345 0.027 0.664-0.266 0.983l-1.939 1.593c-0.239 0.186-0.319 0.372-0.212 0.584 0.186 0.266 0.372 0.558 0.558 0.929 0.106 0.186 0.239 0.292 0.425 0.292h1.806c0.425 0.080 0.637 0.372 0.584 0.823-0.053 0.345-0.239 0.558-0.584 0.637h-1.328c-0.186 0-0.266 0.106-0.239 0.292 0.080 0.451 0.080 0.876 0.053 1.248-0.053 0.77-0.239 1.407-0.531 1.939-0.505 0.797-1.089 1.248-1.779 1.354-1.036 0.106-2.098-0.106-3.187-0.664-0.345-0.292-0.478-0.611-0.345-0.956 0.292-0.531 0.637-0.69 1.089-0.425 0.319 0.159 0.637 0.292 0.956 0.345 0.425 0.106 0.823 0.080 1.142-0.053 0.292-0.106 0.505-0.292 0.69-0.558 0.239-0.319 0.345-0.717 0.398-1.168 0.027-0.319 0-0.664-0.080-1.036-0.053-0.186-0.159-0.292-0.345-0.292h-3.983c-0.345-0.053-0.558-0.266-0.637-0.611-0.027-0.451 0.186-0.717 0.637-0.823h3.426c0.186 0 0.239-0.106 0.106-0.292s-0.239-0.319-0.345-0.425c-0.478-0.584-0.451-1.062 0-1.461 0.398-0.345 0.797-0.69 1.222-1.036 0.239-0.212 0.239-0.319 0-0.345h-3.771c-0.425-0.186-0.664-0.425-0.69-0.797z">
      </path>
      <path fill="#f5b01a" style="fill: var(--color5, #f5b01a)"
        d="M65.726 17.766c0.398-0.080 0.69 0.080 0.85 0.478 0.027 0.080 0.027 0.159 0.027 0.239 0 0.212 0.106 0.292 0.292 0.292h2.788c0.505 0.106 0.77 0.398 0.85 0.876v2.124c0 0.212 0.106 0.292 0.292 0.292h0.505c0.372 0.080 0.558 0.292 0.558 0.637 0.053 0.398-0.159 0.637-0.584 0.744h-3.797c-0.186 0-0.212 0.106-0.027 0.292 0.319 0.292 0.611 0.531 0.903 0.717 0.77 0.451 1.567 0.77 2.417 0.929 0.372 0.053 0.69 0.186 0.929 0.398 0.159 0.319 0.159 0.611 0 0.85-0.239 0.319-0.558 0.398-0.956 0.292-1.036-0.186-1.992-0.558-2.895-1.115-0.611-0.398-1.168-0.876-1.673-1.461-0.159-0.212-0.319-0.212-0.451 0-0.558 0.611-1.195 1.115-1.939 1.514-0.983 0.531-1.939 0.876-2.895 1.089-0.398 0.080-0.69-0.080-0.903-0.451-0.053-0.133-0.080-0.319-0.027-0.584 0.106-0.292 0.292-0.451 0.611-0.505 0.266-0.027 0.584-0.080 0.956-0.212 0.664-0.186 1.301-0.425 1.939-0.77 0.345-0.186 0.664-0.425 0.956-0.69 0.186-0.186 0.159-0.292-0.027-0.292h-3.851c-0.425-0.106-0.611-0.345-0.611-0.744 0.053-0.345 0.239-0.558 0.584-0.637h0.425c0.186 0 0.292-0.106 0.292-0.292v-2.124c0.106-0.505 0.398-0.797 0.903-0.876h2.788c0.186 0 0.292-0.106 0.292-0.292-0.027-0.372 0.159-0.611 0.478-0.717zM63.522 15.11c0.159-0.027 0.345 0.027 0.505 0.133 0.266 0.212 0.372 0.425 0.319 0.637 0 0.212 0.106 0.292 0.292 0.292h2.629c0.186 0 0.292-0.106 0.292-0.292-0.027-0.345 0.159-0.611 0.505-0.744 0.186-0.053 0.345-0.027 0.531 0.027 0.292 0.159 0.425 0.372 0.398 0.69 0 0.212 0.106 0.292 0.292 0.292h1.912c0.425 0.106 0.611 0.345 0.584 0.77-0.027 0.319-0.239 0.531-0.584 0.637h-1.885c-0.212 0-0.292 0.106-0.292 0.292 0.027 0.133-0.027 0.292-0.133 0.451-0.186 0.239-0.425 0.345-0.69 0.292-0.372-0.053-0.584-0.319-0.611-0.77 0-0.186-0.106-0.292-0.292-0.292h-2.629c-0.212 0-0.292 0.106-0.292 0.292 0 0.425-0.186 0.69-0.584 0.797-0.159 0.027-0.292 0-0.425-0.053-0.292-0.159-0.425-0.398-0.398-0.744 0-0.186-0.106-0.292-0.292-0.292h-2.045c-0.212-0.053-0.345-0.133-0.451-0.319-0.133-0.212-0.133-0.425-0.027-0.69 0.133-0.239 0.319-0.372 0.531-0.372h2.018c0.186 0 0.292-0.106 0.292-0.292-0.080-0.425 0.133-0.69 0.531-0.744zM63.177 20.156c-0.212-0.053-0.372 0-0.478 0.133-0.053 0.080-0.053 0.239-0.053 0.425v1.062c0 0.212 0.106 0.292 0.292 0.292h1.965c0.186 0 0.292-0.106 0.292-0.292v-1.328c0-0.186-0.106-0.292-0.292-0.292h-1.726zM69.125 20.475c-0.027-0.159-0.133-0.266-0.319-0.319h-1.885c-0.212 0-0.292 0.106-0.292 0.292v1.328c0 0.212 0.106 0.292 0.292 0.292h1.912c0.186 0 0.292-0.106 0.292-0.292v-1.301z">
      </path>
      <path fill="#f5b01a" style="fill: var(--color5, #f5b01a)"
        d="M73.56 17.793c0.027-0.292 0.239-0.505 0.584-0.584h3.612c0.266 0.027 0.451 0.159 0.531 0.372 0.053 0.133 0.053 0.319 0 0.478-0.133 0.292-0.292 0.451-0.558 0.478h-3.638c-0.398-0.106-0.584-0.345-0.531-0.744zM74.543 22.413h2.735c0.425 0.106 0.69 0.372 0.77 0.823v2.735c-0.106 0.478-0.398 0.77-0.85 0.85h-2.576c-0.398-0.053-0.69-0.319-0.823-0.823v-2.762c0.027-0.451 0.292-0.717 0.744-0.823zM74.516 15.456h2.788c0.080 0 0.159 0.027 0.239 0.053 0.106 0.053 0.186 0.106 0.212 0.159 0.212 0.319 0.186 0.664-0.106 0.956-0.106 0.080-0.212 0.106-0.345 0.133h-2.788c-0.425-0.106-0.637-0.372-0.584-0.797 0.106-0.292 0.319-0.478 0.584-0.505zM74.357 18.988c0.080-0.027 0.239-0.027 0.478-0.027h2.47c0.080 0.027 0.159 0.053 0.239 0.080 0.133 0.053 0.186 0.080 0.239 0.159 0.212 0.345 0.186 0.664-0.106 0.956-0.106 0.080-0.212 0.133-0.345 0.133h-2.788c-0.425-0.106-0.637-0.372-0.584-0.797 0-0.212 0.133-0.398 0.398-0.505zM73.932 21.245c0.106-0.319 0.292-0.505 0.584-0.558h2.788c0.319 0.027 0.505 0.186 0.558 0.478 0.053 0.159 0.027 0.319-0.053 0.478-0.106 0.239-0.292 0.345-0.505 0.372h-2.788c-0.425-0.080-0.637-0.345-0.584-0.77zM75.393 23.794c-0.080 0.027-0.133 0.080-0.186 0.159-0.027 0.027-0.027 0.133-0.027 0.319v0.956c0.027 0.106 0.080 0.159 0.159 0.212 0.053 0.027 0.186 0.053 0.398 0.053h0.319c0.186 0 0.319-0.027 0.398-0.053 0.159-0.106 0.239-0.292 0.186-0.531v-0.558c0-0.186-0.027-0.319-0.053-0.425-0.133-0.133-0.292-0.186-0.531-0.133h-0.319c-0.186-0.027-0.319-0.027-0.345 0zM79.084 15.456h5.577c0.425 0.080 0.611 0.345 0.558 0.77-0.027 0.266-0.212 0.451-0.558 0.558h-2.523c-0.186 0-0.319 0.106-0.372 0.345s0.027 0.345 0.239 0.345h1.646c0.531 0.053 0.823 0.372 0.929 0.929v1.487c0 0.212 0.106 0.292 0.292 0.292 0.372 0 0.584 0.159 0.69 0.478 0.053 0.186 0.027 0.345-0.080 0.505-0.106 0.212-0.266 0.319-0.505 0.345h-6.427c-0.425-0.080-0.611-0.319-0.584-0.744 0.027-0.319 0.212-0.505 0.584-0.584h0.876c0.212 0 0.319-0.106 0.345-0.292l0.159-0.77c0.027-0.212-0.053-0.292-0.239-0.292h-0.584c-0.372-0.053-0.584-0.239-0.637-0.584-0.027-0.398 0.186-0.637 0.637-0.744h0.85c0.186 0 0.319-0.106 0.372-0.345 0.027-0.239-0.053-0.345-0.239-0.345h-1.036c-0.319-0.053-0.531-0.239-0.558-0.558-0.027-0.451 0.159-0.717 0.584-0.797zM79.163 22.201c0.133-0.053 0.239-0.080 0.345-0.106h4.647c0.133 0 0.239 0.053 0.372 0.159 0.239 0.186 0.372 0.398 0.398 0.664v3.027c0 0.159-0.080 0.319-0.212 0.478-0.159 0.212-0.372 0.345-0.611 0.372h-4.515c-0.398-0.053-0.69-0.319-0.823-0.823v-3.081c0-0.292 0.133-0.531 0.398-0.69zM80.332 23.449c-0.080 0-0.159 0.053-0.212 0.159-0.027 0.027-0.027 0.133-0.027 0.345v0.876c-0.053 0.425 0.106 0.637 0.558 0.584h2.257c0.186 0 0.319-0.027 0.398-0.053 0.159-0.106 0.239-0.292 0.186-0.531v-0.85c0-0.186-0.027-0.319-0.053-0.425-0.133-0.133-0.292-0.186-0.531-0.133h-2.231c-0.186 0-0.292 0.027-0.345 0.027zM82.934 18.881c-0.080-0.053-0.212-0.053-0.398-0.053h-0.823c-0.186 0-0.319 0.106-0.345 0.292l-0.159 0.77c-0.053 0.212 0.027 0.319 0.212 0.319h1.487c0.186 0 0.292-0.106 0.292-0.292v-0.398c0-0.186 0-0.319-0.027-0.398s-0.133-0.186-0.239-0.239z">
      </path>
      <path fill="#8073b3" style="fill: var(--color11, #8073b3)"
        d="M87.954 17.049c0.186-0.053 0.398-0.027 0.611 0.133 0.159 0.133 0.239 0.266 0.266 0.478-0.027 1.381-0.106 2.735-0.239 4.037-0.027 0.186-0.053 0.345-0.080 0.478-0.186 0.425-0.451 0.584-0.85 0.478-0.186-0.053-0.345-0.186-0.425-0.372-0.053-0.133-0.080-0.319-0.027-0.558 0.159-1.062 0.239-2.018 0.292-2.895v-1.168c0-0.319 0.159-0.505 0.451-0.611zM88.883 15.668c0.080-0.425 0.345-0.637 0.77-0.611 0.372 0.053 0.584 0.266 0.664 0.611v1.514c0 0.212 0.027 0.266 0.106 0.159 0.159-0.159 0.372-0.239 0.584-0.212 0.159 0.027 0.292 0.053 0.372 0.133s0.106 0.053 0.133-0.053c0.106-0.345 0.319-0.531 0.664-0.584h1.301c0.186 0 0.292-0.106 0.292-0.292v-0.558c0.027-0.345 0.239-0.558 0.584-0.69 0.531-0.080 0.823 0.159 0.929 0.717v0.505c0 0.212 0.106 0.292 0.292 0.292h1.779c0.584 0.106 0.929 0.451 0.983 0.983v2.47c0 0.186 0.106 0.292 0.292 0.292 0.372 0.053 0.558 0.266 0.558 0.611 0.027 0.186-0.027 0.345-0.159 0.531-0.106 0.159-0.266 0.266-0.451 0.266h-2.576c-0.212 0-0.266 0.106-0.186 0.292 0.558 1.301 1.514 2.39 2.895 3.293 0.398 0.239 0.558 0.584 0.451 1.009-0.106 0.319-0.319 0.531-0.69 0.611-0.133 0.027-0.319 0-0.478-0.080-0.239-0.133-0.558-0.398-0.956-0.797-0.983-0.903-1.726-1.859-2.204-2.815-0.106-0.186-0.186-0.186-0.266 0-0.239 0.664-0.558 1.275-0.956 1.832-0.77 1.089-1.567 1.726-2.364 1.912-0.159 0.027-0.319-0.053-0.505-0.186-0.159-0.133-0.239-0.319-0.266-0.478-0.053-0.239 0.027-0.451 0.266-0.664 0.531-0.266 1.036-0.69 1.514-1.248 0.584-0.744 0.983-1.514 1.168-2.364 0.053-0.186-0.027-0.292-0.239-0.292h-1.779c-0.558-0.133-0.77-0.451-0.611-1.009 0.080-0.133 0.080-0.266 0-0.319-0.106-0.106-0.159-0.239-0.186-0.398l-0.212-1.354c-0.053-0.186-0.053-0.186-0.080 0v7.754c-0.053 0.292-0.212 0.505-0.478 0.637-0.212 0.053-0.398 0.053-0.558-0.053-0.212-0.133-0.345-0.319-0.372-0.584v-10.782zM92.176 18.058c-0.106-0.027-0.212-0.053-0.266-0.080-0.186-0.106-0.266-0.080-0.239 0.133 0.053 0.531 0.133 1.062 0.239 1.593 0.027 0.239 0.027 0.398-0.027 0.505s0.027 0.159 0.239 0.159h1.301c0.186 0 0.292-0.106 0.319-0.292v-1.726c0-0.186-0.106-0.292-0.292-0.292h-1.275zM96.505 18.058h-0.929c-0.212 0-0.292 0.106-0.292 0.292v1.487c0 0.053 0 0.133 0 0.212 0.027 0.212 0.106 0.319 0.292 0.319h1.036c0.186 0 0.292-0.106 0.292-0.292v-1.328c0-0.186 0-0.319-0.027-0.398-0.106-0.186-0.239-0.266-0.372-0.292z">
      </path>
      <path fill="#8073b3" style="fill: var(--color11, #8073b3)"
        d="M106.436 15.137c0.186-0.133 0.398-0.133 0.664-0.027 0.186 0.080 0.292 0.212 0.345 0.425 0.027 0.133 0 0.292-0.027 0.425-0.053 0.186 0.027 0.292 0.212 0.292 0.239-0.027 0.425 0.027 0.637 0.133 0.186 0.106 0.292 0.239 0.319 0.425 0.027 0.133 0.080 0.186 0.133 0.159s0.133-0.027 0.212-0.027c0.080 0.027 0.159-0.080 0.239-0.266 0.106-0.319 0.212-0.611 0.292-0.929 0.159-0.478 0.451-0.664 0.876-0.558 0.345 0.186 0.478 0.398 0.398 0.69-0.106 0.478-0.292 1.009-0.584 1.593-0.080 0.186-0.080 0.372 0.053 0.531s0.266 0.133 0.345-0.053l0.212-0.478c0.106-0.239 0.186-0.398 0.266-0.478 0.106-0.133 0.239-0.212 0.398-0.239s0.345 0.027 0.505 0.212c0.133 0.133 0.159 0.319 0.106 0.558-0.239 0.558-0.451 1.036-0.637 1.381-0.106 0.212-0.106 0.292 0 0.266 0.292-0.133 0.531-0.027 0.744 0.292 0.292 0.77 0.505 1.407 0.637 1.939 0.053 0.186 0.027 0.345-0.080 0.478s-0.239 0.239-0.398 0.266c-0.292 0.027-0.505-0.080-0.637-0.345-0.053-0.106-0.159-0.133-0.372-0.106-0.797 0.133-1.593 0.239-2.39 0.398-0.292 0.080-0.558 0-0.77-0.212-0.053-0.080-0.159-0.106-0.319-0.053-0.159 0-0.266 0.106-0.266 0.319s0.106 0.319 0.292 0.319h4.249c0.186 0.027 0.345 0.133 0.451 0.292 0.133 0.239 0.159 0.505 0.053 0.717-0.133 0.212-0.292 0.345-0.531 0.372h-2.868c-0.186 0-0.319 0-0.345 0-0.053 0.027 0.053 0.080 0.239 0.239 0.956 0.505 1.912 0.823 2.868 0.956 0.212 0.027 0.372 0.080 0.478 0.133 0.212 0.106 0.319 0.239 0.345 0.425 0.053 0.186 0.027 0.345-0.053 0.531-0.106 0.212-0.239 0.319-0.425 0.372-0.266 0.053-0.584 0.053-0.983-0.080-1.142-0.266-2.284-0.797-3.479-1.593-0.212-0.133-0.292-0.106-0.292 0.080v1.54c-0.053 0.372-0.266 0.584-0.611 0.664-0.478 0.053-0.744-0.186-0.823-0.664v-1.514c0-0.186-0.106-0.239-0.292-0.106-1.301 0.797-2.576 1.354-3.824 1.646-0.398 0.080-0.69 0.053-0.85-0.027-0.239-0.159-0.372-0.398-0.372-0.717 0.080-0.425 0.345-0.637 0.744-0.69 0.876-0.186 1.832-0.531 2.868-1.009 0.212-0.133 0.319-0.186 0.266-0.212-0.027 0-0.133 0-0.345 0h-2.815c-0.212-0.053-0.345-0.133-0.451-0.319-0.133-0.212-0.133-0.425-0.027-0.69 0.133-0.239 0.319-0.372 0.531-0.372h4.276c0.186 0 0.292-0.106 0.292-0.292 0-0.212-0.053-0.319-0.186-0.319s-0.239-0.027-0.345-0.053c-0.133-0.053-0.186-0.027-0.186 0.053-0.080 0.266-0.239 0.398-0.478 0.425-0.292 0.027-0.505-0.106-0.637-0.372-0.027-0.133-0.133-0.159-0.319-0.133-0.823 0.106-1.593 0.186-2.337 0.292-0.398 0.027-0.664-0.159-0.77-0.558-0.053-0.398 0.133-0.664 0.558-0.77 0.053 0 0.133-0.053 0.212-0.186 0.266-0.319 0.505-0.637 0.69-0.903 0.133-0.186 0.106-0.398-0.080-0.584-0.266-0.266-0.584-0.531-0.956-0.823-0.398-0.239-0.505-0.558-0.372-0.929 0.186-0.319 0.451-0.451 0.797-0.372 0.106 0.053 0.186-0.027 0.266-0.212 0.106-0.319 0.212-0.611 0.319-0.903 0.053-0.212 0.106-0.372 0.212-0.478 0.133-0.159 0.239-0.239 0.345-0.266 0.266-0.053 0.505 0.027 0.69 0.266 0.080 0.080 0.080 0.212 0.053 0.398-0.106 0.478-0.319 1.062-0.637 1.779-0.106 0.186-0.080 0.345 0.053 0.451 0.133 0.133 0.239 0.106 0.345-0.106l0.425-0.903c0.053-0.159 0.159-0.319 0.372-0.425 0.239-0.106 0.478-0.053 0.664 0.133s0.212 0.451 0.027 0.85c-0.133 0.398-0.398 0.903-0.744 1.514-0.133 0.186-0.106 0.266 0.027 0.212 0.239-0.053 0.451 0.053 0.637 0.319 0.053 0.080 0.106 0.212 0.186 0.398 0.080 0.212 0.133 0.212 0.133 0v-3.027c0.053-0.345 0.292-0.584 0.664-0.69 0.106 0 0.186-0.106 0.266-0.292 0.106-0.319 0.266-0.584 0.425-0.797zM103.754 20.129c-0.053-0.212-0.159-0.239-0.266-0.053l-0.106 0.133c-0.133 0.212-0.106 0.292 0.080 0.266l0.186-0.027c0.133 0 0.159-0.133 0.106-0.319zM106.861 17.58c-0.212 0-0.345 0-0.372 0-0.027 0.027-0.027 0.027-0.053 0.053 0 0.027 0 0.159 0 0.372 0 0.239 0.106 0.345 0.292 0.345h0.266c0.186 0 0.292-0.106 0.292-0.345s0-0.372-0.027-0.398c-0.053-0.027-0.186-0.027-0.398-0.027zM107.26 20.050c0-0.239-0.080-0.345-0.266-0.345h-0.266c-0.212 0-0.292 0.106-0.292 0.345s0 0.345 0 0.372c0.053 0.106 0.186 0.133 0.398 0.106 0.186 0.027 0.319 0 0.398-0.080 0.027-0.053 0.027-0.186 0.027-0.398zM108.959 18.563c-0.239-0.212-0.345-0.239-0.345-0.027v1.939c0 0.186 0.027 0.292 0.106 0.292 0.053 0 0.159-0.106 0.319-0.292 0.186-0.239 0.345-0.451 0.505-0.69 0.133-0.186 0.133-0.398 0-0.584l-0.584-0.637zM111.057 19.89c-0.027-0.212-0.106-0.212-0.212 0l-0.212 0.292c-0.133 0.186-0.106 0.292 0.080 0.266l0.212-0.027c0.212-0.027 0.266-0.133 0.186-0.345l-0.053-0.186z">
      </path>
      <path fill="#8073b3" style="fill: var(--color11, #8073b3)"
        d="M117.245 21.67c-0.080-0.398 0.080-0.637 0.505-0.717h5.072c0.159 0.027 0.319 0.053 0.478 0.106 0.398 0.133 0.584 0.425 0.531 0.823-0.027 0.159-0.106 0.319-0.266 0.478-0.212 0.133-0.611 0.345-1.168 0.611-0.212 0.106-0.292 0.186-0.266 0.186h3.612c0.266 0.053 0.451 0.159 0.531 0.398 0.053 0.133 0.053 0.319 0 0.478-0.106 0.292-0.266 0.451-0.531 0.478h-3.426c-0.186 0-0.292 0.106-0.266 0.292 0.053 0.478-0.106 0.983-0.451 1.487-0.425 0.478-0.903 0.744-1.461 0.797-0.478 0.053-1.062-0.027-1.7-0.239-0.186-0.053-0.345-0.133-0.478-0.212-0.398-0.266-0.505-0.584-0.345-0.929 0.159-0.451 0.451-0.611 0.876-0.531 0.159 0.027 0.319 0.080 0.478 0.186 0.372 0.159 0.77 0.186 1.142 0.106 0.080-0.027 0.159-0.053 0.239-0.106 0.186-0.106 0.266-0.292 0.239-0.584-0.053-0.159-0.159-0.266-0.345-0.266h-5.046c-0.372-0.080-0.558-0.266-0.584-0.611-0.027-0.212 0.053-0.372 0.186-0.531 0.080-0.106 0.212-0.159 0.398-0.186h4.249c0.186 0 0.292-0.053 0.319-0.186s0.133-0.266 0.319-0.398c0.106-0.053 0.266-0.133 0.478-0.159l0.876-0.239c0.053-0.053 0.027-0.080-0.053-0.106-0.027 0-0.133 0-0.319 0h-3.266c-0.292-0.053-0.478-0.186-0.558-0.425zM120.671 15.535c0.319-0.372 0.637-0.478 0.929-0.266 0.106 0.053 0.159 0.133 0.212 0.212 0.106 0.159 0.080 0.372-0.080 0.558-0.159 0.212-0.159 0.372 0.027 0.478 0.212 0.212 0.239 0.451 0.133 0.717-0.080 0.106-0.080 0.212 0 0.372 0.053 0.133 0.080 0.266 0.053 0.372-0.027 0.053-0.080 0.133-0.159 0.239-0.133 0.133-0.159 0.212-0.053 0.266 0.266 0.186 0.372 0.425 0.266 0.69-0.053 0.133 0 0.212 0.186 0.212h1.407c0.186 0 0.292-0.027 0.292-0.106s-0.106-0.133-0.292-0.133h-1.009c-0.133 0-0.239-0.080-0.372-0.212-0.106-0.159-0.133-0.319-0.053-0.505 0.053-0.186 0.186-0.292 0.425-0.345h1.009c0.186 0 0.292-0.027 0.292-0.106s-0.106-0.106-0.292-0.106h-1.089c-0.239-0.053-0.398-0.212-0.425-0.451-0.027-0.319 0.133-0.505 0.451-0.584h1.062c0.186 0 0.292 0 0.292-0.027 0-0.053-0.027-0.080-0.106-0.133-0.053-0.027-0.186-0.027-0.345-0.027h-0.876c-0.186-0.053-0.345-0.159-0.425-0.319-0.106-0.372 0.053-0.611 0.451-0.717h1.832c0.451 0.053 0.717 0.319 0.823 0.823v2.682c0 0.186 0.106 0.292 0.292 0.319 0.159 0.053 0.266 0.106 0.372 0.212 0.186 0.133 0.292 0.319 0.345 0.505 0.106 0.584 0.027 1.195-0.212 1.806-0.053 0.266-0.186 0.451-0.372 0.584-0.319 0.159-0.611 0.133-0.903-0.133-0.186-0.212-0.212-0.505-0.027-0.85 0.080-0.186 0.106-0.345 0.133-0.478 0.027-0.186-0.053-0.319-0.212-0.345h-7.967c-0.186 0-0.319 0-0.345 0-0.106 0.053-0.159 0.106-0.159 0.212v1.036c-0.053 0.425-0.266 0.637-0.69 0.69-0.372 0-0.611-0.239-0.69-0.664v-1.7c0.053-0.319 0.212-0.584 0.531-0.77 0.159-0.053 0.239-0.186 0.239-0.398v-2.815c0.027-0.186 0.080-0.345 0.186-0.478 0.133-0.133 0.292-0.239 0.478-0.266 0.637 0 1.195-0.080 1.646-0.212 0.186-0.080 0.345-0.106 0.478-0.080 0.319 0.080 0.505 0.266 0.531 0.558 0.027 0.398-0.186 0.637-0.637 0.717-0.345 0.080-0.744 0.133-1.168 0.133-0.080 0-0.133 0.027-0.159 0.133 0 0.027 0.106 0.053 0.292 0.053h0.876c0.106 0 0.239 0.053 0.345 0.159 0.053 0.053 0.159 0 0.319-0.159l0.266-0.159c0.186-0.080 0.239-0.159 0.133-0.239-0.186-0.186-0.239-0.398-0.159-0.611 0.133-0.292 0.292-0.398 0.531-0.345 0.212 0.027 0.425 0.106 0.637 0.212 0.133 0.027 0.319-0.027 0.505-0.212zM118.546 17.66c-0.053-0.080-0.106-0.080-0.133-0.027-0.053 0.080-0.133 0.159-0.212 0.212-0.106 0.053-0.266 0.053-0.505 0.053h-0.558c-0.212 0-0.292 0.027-0.292 0.106s0.106 0.106 0.292 0.106h0.876c0.239 0 0.398 0.159 0.451 0.425 0 0.080 0.053 0.080 0.133 0 0.080-0.053 0.186-0.080 0.292-0.133s0.159-0.053 0.133-0.106c-0.080-0.080-0.106-0.186-0.106-0.319 0-0.080-0.053-0.133-0.159-0.159-0.053-0.027-0.133-0.080-0.212-0.159zM118.387 18.988c0-0.027-0.053 0-0.159 0.106-0.133 0.053-0.319 0.080-0.558 0.080h-0.531c-0.212 0-0.292 0.027-0.292 0.106s0.106 0.133 0.292 0.133h1.115c0.186 0 0.266-0.053 0.186-0.186l-0.053-0.239zM120.113 19.227c0.133-0.053 0.080-0.053-0.159 0.080-0.106 0.053-0.133 0.080-0.080 0.106 0.345 0 0.69 0 1.062 0 0.027-0.027 0.053-0.027 0.027-0.053 0-0.027-0.080-0.080-0.239-0.159-0.159-0.106-0.372-0.080-0.611 0.027zM120.803 17.261c-0.159-0.080-0.372-0.053-0.584 0.080s-0.239 0.239-0.027 0.319c0.186 0.106 0.372 0.080 0.558-0.080l0.133-0.106c0.080-0.053 0.053-0.133-0.080-0.212z">
      </path>
    </symbol>
  </defs>
</svg>