<svg xmlns="http://www.w3.org/2000/svg" width="23.015" height="14.649" viewBox="0 0 23.015 14.649">
  <g id="Сгруппировать_98" data-name="Сгруппировать 98" transform="translate(-89.635 -786.904)">
    <g id="Сгруппировать_95" data-name="Сгруппировать 95">
      <g id="Сгруппировать_94" data-name="Сгруппировать 94">
        <g id="Сгруппировать_78" data-name="Сгруппировать 78">
          <path id="Контур_89" data-name="Контур 89" d="M96.856,800.027s-.7,1.336-.338,1.514,2.074-1.693,2.074-1.693Z" fill="#6b64bf"/>
        </g>
        <g id="Сгруппировать_79" data-name="Сгруппировать 79">
          <path id="Контур_90" data-name="Контур 90" d="M105.466,800.027s.7,1.336.338,1.514-2.074-1.693-2.074-1.693Z" fill="#6b64bf"/>
        </g>
        <g id="Сгруппировать_80" data-name="Сгруппировать 80">
          <path id="Контур_91" data-name="Контур 91" d="M106.917,792.188s2.081-3.516,3.061-3.54,2.672,4.406,2.672,4.406-1.469-.644-1.915-.243c0,0-1.247-1.692-1.871-1.336s-1.947,1.133-1.947,1.133Z" fill="#e89fbb"/>
        </g>
        <g id="Сгруппировать_81" data-name="Сгруппировать 81">
          <path id="Контур_92" data-name="Контур 92" d="M95.368,792.188s-2.081-3.516-3.061-3.54-2.672,4.406-2.672,4.406,1.47-.644,1.915-.243c0,0,1.247-1.692,1.871-1.336s1.947,1.133,1.947,1.133Z" fill="#e89fbb"/>
        </g>
        <g id="Сгруппировать_82" data-name="Сгруппировать 82">
          <path id="Контур_93" data-name="Контур 93" d="M105.437,800.307a37.791,37.791,0,0,1-8.569.02,2.173,2.173,0,0,1-1.9-2.308l.616-9.371h11.166L107.36,798A2.179,2.179,0,0,1,105.437,800.307Z" fill="#739ae8"/>
        </g>
        <path id="Контур_94" data-name="Контур 94" d="M107.328,797.511a2.171,2.171,0,0,1-1.891,1.78,37.792,37.792,0,0,1-8.569.021,2.168,2.168,0,0,1-1.874-1.778l-.031.485a2.173,2.173,0,0,0,1.9,2.308,37.791,37.791,0,0,0,8.569-.02A2.179,2.179,0,0,0,107.36,798Z" fill="#807cd8"/>
        <g id="Сгруппировать_85" data-name="Сгруппировать 85">
          <g id="Сгруппировать_83" data-name="Сгруппировать 83">
            <path id="Контур_95" data-name="Контур 95" d="M108.218,788.793a3.466,3.466,0,0,1-2.045.595,3.524,3.524,0,0,1,.642-2c.611-.611,1.183-.6,1.57-.215S108.829,788.182,108.218,788.793Z" fill="#739ae8"/>
          </g>
          <g id="Сгруппировать_84" data-name="Сгруппировать 84">
            <path id="Контур_96" data-name="Контур 96" d="M94.1,788.793a3.466,3.466,0,0,0,2.045.595,3.524,3.524,0,0,0-.642-2c-.611-.611-1.183-.6-1.57-.215S93.493,788.182,94.1,788.793Z" fill="#739ae8"/>
          </g>
        </g>
        <g id="Сгруппировать_88" data-name="Сгруппировать 88">
          <g id="Сгруппировать_86" data-name="Сгруппировать 86">
            <path id="Контур_97" data-name="Контур 97" d="M96.829,792.187c0,.476-.186.862-.416.862s-.416-.386-.416-.862.186-.862.416-.862S96.829,791.711,96.829,792.187Z" fill="#e89fbb"/>
          </g>
          <g id="Сгруппировать_87" data-name="Сгруппировать 87">
            <path id="Контур_98" data-name="Контур 98" d="M105.1,792.187c0,.476.187.862.416.862s.417-.386.417-.862-.187-.862-.417-.862S105.1,791.711,105.1,792.187Z" fill="#e89fbb"/>
          </g>
        </g>
        <g id="Сгруппировать_90" data-name="Сгруппировать 90">
          <g id="Сгруппировать_89" data-name="Сгруппировать 89">
            <path id="Контур_99" data-name="Контур 99" d="M102.469,795.4c0,.132-.586.238-1.308.238s-1.308-.106-1.308-.238.586-.237,1.308-.237S102.469,795.27,102.469,795.4Z" fill="#ecb32b"/>
          </g>
        </g>
        <g id="Сгруппировать_91" data-name="Сгруппировать 91">
          <path id="Контур_100" data-name="Контур 100" d="M97.087,793.614s-.424,1.074-.231,1.252,1.184-1.05,1.184-1.05Z" fill="#fff"/>
        </g>
        <g id="Сгруппировать_92" data-name="Сгруппировать 92">
          <path id="Контур_101" data-name="Контур 101" d="M104.283,793.816l.952-.2s.424,1.074.231,1.252" fill="#fff"/>
        </g>
        <g id="Сгруппировать_93" data-name="Сгруппировать 93">
          <path id="Контур_102" data-name="Контур 102" d="M101.161,794.124c-2.45,0-5.053-.375-5.053-1.07h.18c0,.421,2,.89,4.873.89s4.873-.469,4.873-.89h.18C106.214,793.749,103.611,794.124,101.161,794.124Z" fill="#413a89"/>
        </g>
      </g>
    </g>
    <g id="Сгруппировать_96" data-name="Сгруппировать 96">
      <path id="Контур_103" data-name="Контур 103" d="M101.329,792.141a1.485,1.485,0,1,0,.366-2.068A1.485,1.485,0,0,0,101.329,792.141Z" fill="#f7f0e2"/>
      <path id="Контур_104" data-name="Контур 104" d="M101.535,791.927a1.05,1.05,0,1,0,.259-1.462A1.05,1.05,0,0,0,101.535,791.927Z" fill="#2e353a"/>
    </g>
    <g id="Сгруппировать_97" data-name="Сгруппировать 97">
      <path id="Контур_105" data-name="Контур 105" d="M97.4,792.487a1.738,1.738,0,1,0,.429-2.42A1.738,1.738,0,0,0,97.4,792.487Z" fill="#f7f0e2"/>
      <path id="Контур_106" data-name="Контур 106" d="M97.643,792.237a1.229,1.229,0,1,0,.3-1.711A1.23,1.23,0,0,0,97.643,792.237Z" fill="#2e353a"/>
    </g>
  </g>
</svg>
